<svg width="32" height="32" viewBox="0 0 32 32" fill="none" xmlns="http://www.w3.org/2000/svg">
<path d="M24.0096 0C25.1055 0 26.1378 0.210275 27.1063 0.630824C28.0749 1.05137 28.9223 1.62485 29.6487 2.35125C30.3751 3.07766 30.9486 3.92513 31.3692 4.89367C31.7897 5.86221 32 6.89446 32 7.99044V23.9713C32 25.0673 31.7897 26.1059 31.3692 27.0872C30.9486 28.0685 30.3751 28.9223 29.6487 29.6487C28.9223 30.3751 28.0749 30.9486 27.1063 31.3692C26.1378 31.7897 25.1055 32 24.0096 32H7.99044C6.89446 32 5.86221 31.7897 4.89367 31.3692C3.92513 30.9486 3.07766 30.3751 2.35125 29.6487C1.62485 28.9223 1.05137 28.0685 0.630824 27.0872C0.210275 26.1059 0 25.0673 0 23.9713V7.99044C0 6.89446 0.210275 5.86221 0.630824 4.89367C1.05137 3.92513 1.62485 3.07766 2.35125 2.35125C3.07766 1.62485 3.92513 1.05137 4.89367 0.630824C5.86221 0.210275 6.89446 0 7.99044 0H24.0096ZM26.3035 21.1422C26.8387 20.0462 27.1063 18.5806 27.1063 16.7455C27.1063 14.6555 26.5074 12.8969 25.3094 11.4695C25.5388 10.7559 25.6535 10.0167 25.6535 9.25209C25.6535 8.23258 25.4241 7.26404 24.9654 6.34648C23.9968 6.34648 23.1685 6.51215 22.4803 6.84349C21.7157 7.20032 20.8873 7.73556 19.9952 8.44922C19.409 8.32178 18.81 8.21983 18.1983 8.14337C17.5866 8.06691 16.9494 8.02867 16.2867 8.02867C14.8594 8.02867 13.4958 8.1816 12.1959 8.48745C11.2274 7.77379 10.3863 7.23855 9.67264 6.88172C8.98447 6.52489 8.14337 6.34648 7.14934 6.34648C6.69056 7.26404 6.46117 8.23258 6.46117 9.25209C6.46117 9.63441 6.49303 10.0104 6.55675 10.3799C6.62047 10.7495 6.71605 11.1127 6.84349 11.4695C5.64556 12.8459 5.04659 14.6045 5.04659 16.7455C5.04659 18.5806 5.31422 20.0462 5.84946 21.1422C6.28276 22.0342 6.91995 22.7415 7.76105 23.264C8.60215 23.7865 9.48148 24.1625 10.399 24.3919C11.0617 24.5958 11.7372 24.736 12.4253 24.8124C12.8076 24.8634 13.1645 24.9016 13.4958 24.9271C13.8272 24.9526 14.133 24.9654 14.4134 24.9654C14.6937 24.9908 14.9869 25.0036 15.2927 25.0036H17.4337L18.5042 24.9654C18.8355 24.9399 19.186 24.9016 19.5556 24.8507C19.9251 24.7997 20.3266 24.736 20.7599 24.6595C21.6519 24.5066 22.4038 24.3027 23.0155 24.0478C23.6782 23.7674 24.3027 23.3787 24.8889 22.8817C25.4751 22.3847 25.9466 21.8049 26.3035 21.1422ZM20.7216 15.1016C21.7921 15.1016 22.6205 15.4711 23.2067 16.2103C23.8184 16.9494 24.1243 17.8542 24.1243 18.9247C24.1243 19.6894 23.9841 20.3584 23.7037 20.9319C23.4233 21.5054 23.0665 21.9705 22.6332 22.3274C22.1744 22.6587 21.6392 22.9136 21.0275 23.092C20.3648 23.2959 19.7403 23.4297 19.1541 23.4934C18.5679 23.5571 17.9052 23.589 17.1661 23.589H14.9486C14.2095 23.589 13.5532 23.5571 12.9797 23.4934C12.4062 23.4297 11.7881 23.2959 11.1254 23.092C10.5137 22.9136 9.97849 22.6587 9.51971 22.3274C9.08642 21.9705 8.72322 21.5054 8.43011 20.9319C8.137 20.3584 7.99044 19.6894 7.99044 18.9247C7.99044 17.8542 8.2963 16.9494 8.908 16.2103C9.49423 15.4711 10.3226 15.1016 11.3931 15.1016C11.597 15.1016 11.9156 15.1207 12.3489 15.1589C12.7822 15.1971 13.3301 15.2672 13.9928 15.3692C14.2987 15.4202 14.6237 15.4584 14.9677 15.4839C15.3118 15.5094 15.675 15.5221 16.0573 15.5221C16.4397 15.5221 16.8029 15.5094 17.147 15.4839C17.491 15.4584 17.8288 15.4202 18.1601 15.3692C18.8228 15.2672 19.3708 15.1971 19.8041 15.1589C20.2374 15.1207 20.5432 15.1016 20.7216 15.1016ZM12.7694 20.9892C13.1772 20.5305 13.413 20.0207 13.4767 19.46C13.5404 18.8992 13.4958 18.3513 13.3429 17.816C13.2409 17.4592 13.0562 17.1278 12.7885 16.822C12.5209 16.5161 12.1959 16.3632 11.8136 16.3632C11.4313 16.3632 11.1127 16.5161 10.8578 16.822C10.45 17.2808 10.2143 17.7905 10.1505 18.3513C10.0868 18.912 10.1314 19.46 10.2843 19.9952C10.4118 20.3521 10.6093 20.6834 10.8769 20.9892C11.1446 21.2951 11.4568 21.448 11.8136 21.448C12.1704 21.448 12.489 21.2951 12.7694 20.9892ZM21.2569 20.9892C21.6647 20.5305 21.9004 20.0207 21.9642 19.46C22.0279 18.8992 21.9833 18.3513 21.8303 17.816C21.7284 17.4592 21.5436 17.1278 21.276 16.822C21.0084 16.5161 20.6834 16.3632 20.3011 16.3632C19.9188 16.3632 19.6002 16.5161 19.3453 16.822C18.9375 17.2808 18.7017 17.7905 18.638 18.3513C18.5743 18.912 18.6189 19.46 18.7718 19.9952C18.8992 20.3521 19.0968 20.6834 19.3644 20.9892C19.632 21.2951 19.9442 21.448 20.3011 21.448C20.6579 21.448 20.9765 21.2951 21.2569 20.9892Z" fill="black"/>
</svg>
