<svg width="32" height="32" viewBox="0 0 32 32" fill="none" xmlns="http://www.w3.org/2000/svg">
<rect width="32" height="32" rx="8" fill="black"/>
<path d="M8.19548 17.1197V20.1173C8.19548 20.8961 8.61403 21.6214 9.28373 21.9948L14.5157 24.9071C15.1436 25.2591 15.897 25.2591 16.5248 24.9071L21.7568 21.9948C22.4265 21.6214 22.845 20.8961 22.845 20.1173V17.1197L16.5248 20.64C15.897 20.9921 15.1436 20.9921 14.5157 20.64L8.19548 17.1197ZM14.5157 6.81486L5.69459 11.7219C4.97257 12.1273 4.97257 13.1941 5.69459 13.5994L14.5157 18.5065C15.1436 18.8585 15.897 18.8585 16.5248 18.5065L24.9378 13.8235V20.128C24.9378 20.7147 25.4087 21.1947 25.9842 21.1947C26.5597 21.1947 27.0306 20.7147 27.0306 20.128V13.2901C27.0306 12.8954 26.8213 12.5433 26.4865 12.3513L16.5248 6.81486C15.897 6.4735 15.1436 6.4735 14.5157 6.81486Z" fill="white"/>
</svg>
